<?xml version="1.0" encoding="UTF-8" standalone="no"?>
<svg
   xmlns:dc="http://purl.org/dc/elements/1.1/"
   xmlns:cc="http://creativecommons.org/ns#"
   xmlns:rdf="http://www.w3.org/1999/02/22-rdf-syntax-ns#"
   xmlns:svg="http://www.w3.org/2000/svg"
   xmlns="http://www.w3.org/2000/svg"
   xmlns:sodipodi="http://sodipodi.sourceforge.net/DTD/sodipodi-0.dtd"
   xmlns:inkscape="http://www.inkscape.org/namespaces/inkscape"
   version="1.1"
   x="0"
   y="0"
   width="560.83246"
   height="527.43597"
   viewBox="0 0 560.83246 527.43597"
   id="svg30671"
   sodipodi:docname="spider-web-art-publicdomainvectors.svg"
   inkscape:version="0.92.4 (5da689c313, 2019-01-14)">
  <metadata
     id="metadata30677">
    <rdf:RDF>
      <cc:Work
         rdf:about="">
        <dc:format>image/svg+xml</dc:format>
        <dc:type
           rdf:resource="http://purl.org/dc/dcmitype/StillImage" />
        <dc:title></dc:title>
      </cc:Work>
    </rdf:RDF>
  </metadata>
  <defs
     id="defs30675" />
  <sodipodi:namedview
     pagecolor="#ffffff"
     bordercolor="#666666"
     borderopacity="1"
     objecttolerance="10"
     gridtolerance="10"
     guidetolerance="10"
     inkscape:pageopacity="0"
     inkscape:pageshadow="2"
     inkscape:window-width="1785"
     inkscape:window-height="934"
     id="namedview30673"
     showgrid="false"
     fit-margin-top="0"
     fit-margin-left="0"
     fit-margin-right="0"
     fit-margin-bottom="0"
     inkscape:pagecheckerboard="true"
     inkscape:zoom="0.41114983"
     inkscape:cx="280.5"
     inkscape:cy="241.142"
     inkscape:window-x="0"
     inkscape:window-y="23"
     inkscape:window-maximized="0"
     inkscape:current-layer="svg30671" />
  <g
     id="Layer_1"
     transform="translate(0,-0.706)">
    <path
       d="m 239.621,106.563 c 5.831,1.276 11.796,1.957 17.765,2.194 5.968,0.221 11.961,0.017 17.858,-0.764 4.587,-0.617 9.148,-1.562 13.464,-3.055 l 4.917,-50.01 c -6.591,2.871 -13.425,5.244 -20.471,6.899 l -3.143,0.715 c -1.055,0.21 -2.119,0.377 -3.178,0.567 -2.111,0.418 -4.266,0.606 -6.404,0.878 -4.301,0.366 -8.637,0.527 -12.967,0.222 -8.647,-0.573 -17.275,-2.566 -25.211,-6.226 -3.968,-1.819 -7.758,-4.028 -11.316,-6.577 -1.038,-0.756 -2.051,-1.546 -3.047,-2.358 l 17.715,52.665 c 4.361,2.288 9.175,3.765 14.018,4.85 m 95.684,237.847 c 1.376,-1.629 2.821,-3.13 4.305,-4.581 2.976,-2.891 6.095,-5.583 9.346,-8.117 3.249,-2.535 6.622,-4.919 10.181,-7.08 2.366,-1.421 4.798,-2.769 7.414,-3.886 L 338.79,301.404 c -2.023,0.428 -4.07,1.35 -6.013,2.403 -2.32,1.258 -4.525,2.799 -6.635,4.452 -2.107,1.658 -4.125,3.45 -5.997,5.37 -1.394,1.45 -2.772,2.991 -3.846,4.625 l 17.429,28.18 c 0.511,-0.707 1.033,-1.389 1.577,-2.024 m -16.581,-32.106 c 1.865,-2.066 3.871,-3.991 5.989,-5.795 2.124,-1.798 4.351,-3.491 6.783,-4.937 1.396,-0.817 2.854,-1.579 4.416,-2.173 l -29.003,-20.206 c -0.511,0.244 -0.98,0.57 -1.418,0.931 -1.15,0.954 -2.094,2.141 -3.013,3.334 -0.923,1.198 -1.788,2.444 -2.739,3.667 -0.479,0.607 -0.969,1.212 -1.594,1.776 l 17.168,27.76 c 1.024,-1.567 2.199,-2.979 3.411,-4.357 m 40.949,67.985 c 1.743,-2.264 3.575,-4.422 5.461,-6.526 3.778,-4.199 7.755,-8.194 11.937,-11.983 4.188,-3.781 8.555,-7.386 13.272,-10.615 2.36,-1.611 4.804,-3.132 7.407,-4.465 1.185,-0.601 2.407,-1.16 3.673,-1.659 l -29.86,-20.803 c -3.334,1.016 -6.687,2.724 -9.885,4.626 -3.365,2.006 -6.621,4.264 -9.76,6.674 -3.142,2.406 -6.168,4.979 -9.01,7.694 -1.415,1.36 -2.784,2.764 -4.026,4.212 -0.63,0.721 -1.2,1.461 -1.717,2.191 -0.283,0.394 -0.534,0.82 -0.723,1.188 l 20.538,33.207 c 0.861,-1.302 1.771,-2.516 2.693,-3.741 M 298.939,151.035 c 3.528,2.071 7.453,3.596 11.48,4.756 4.034,1.153 8.196,1.941 12.383,2.386 3.85,0.399 7.734,0.495 11.532,0.2 l 16.413,-26.774 c -1.367,0.13 -2.728,0.207 -4.084,0.23 -3.067,0.049 -6.111,-0.114 -9.133,-0.428 -6.041,-0.633 -12.001,-1.867 -17.787,-3.723 -5.771,-1.869 -11.426,-4.33 -16.486,-7.882 -2.524,-1.772 -4.896,-3.815 -6.94,-6.194 -0.617,-0.717 -1.191,-1.478 -1.739,-2.258 l -3.478,32.58 c 1.83,2.875 4.676,5.246 7.839,7.107 m 6.27,-34.073 c 4.736,3.19 10.123,5.459 15.648,7.173 5.541,1.698 11.285,2.811 17.058,3.338 2.886,0.262 5.782,0.377 8.65,0.294 2.384,-0.068 4.754,-0.308 7.001,-0.764 l 28.148,-45.919 c -2.143,1.3 -4.34,2.516 -6.599,3.621 -4.274,2.077 -8.793,3.648 -13.411,4.821 -9.241,2.329 -19.053,2.716 -28.496,0.787 -4.716,-0.959 -9.346,-2.457 -13.707,-4.573 -4.351,-2.13 -8.441,-4.846 -12.043,-8.15 -3.187,-2.941 -6.03,-6.334 -8.191,-10.163 l -4.128,38.664 c 2.19,4.414 5.878,8.053 10.07,10.871 m 52.843,13.411 c 0.288,0.7 0.607,1.41 0.963,2.122 0.71,1.421 1.484,2.84 2.322,4.231 1.658,2.791 3.481,5.509 5.401,8.154 3.848,5.287 8.09,10.301 12.737,14.87 2.328,2.279 4.753,4.449 7.278,6.479 2.537,2.014 5.185,3.867 7.934,5.522 4.854,2.943 10.123,5.124 15.556,6.173 l 46.381,-25.99 c -1.776,-0.101 -3.553,-0.307 -5.314,-0.601 -4.799,-0.855 -9.491,-2.369 -13.938,-4.386 -4.484,-1.958 -8.684,-4.484 -12.682,-7.254 -3.995,-2.782 -7.761,-5.866 -11.324,-9.156 -7.058,-6.645 -13.343,-14.078 -18.58,-22.198 -2.637,-4.045 -4.978,-8.29 -6.932,-12.72 -0.964,-2.217 -1.798,-4.506 -2.46,-6.837 -0.184,-0.72 -0.355,-1.454 -0.497,-2.193 l -27.097,43.09 c 0.081,0.228 0.174,0.467 0.252,0.694 m -60.633,157.355 c 0.484,-0.394 0.957,-0.872 1.413,-1.37 1.008,-1.107 1.975,-2.295 3.001,-3.436 1.04,-1.129 2.12,-2.251 3.405,-3.135 0.444,-0.302 0.917,-0.57 1.417,-0.771 l -25.698,-17.903 z m -45.126,-107.91 c 0.072,0.037 0.211,0.071 0.337,0.103 0.499,0.141 1.152,0.242 1.801,0.32 1.321,0.15 2.731,0.202 4.145,0.211 2.837,0.01 5.726,-0.171 8.591,-0.463 2.866,-0.302 5.723,-0.72 8.512,-1.286 1.388,-0.291 2.759,-0.625 4.071,-1.025 0.642,-0.196 1.274,-0.412 1.871,-0.647 l 2.871,-29.213 c -2.709,0.774 -5.46,1.29 -8.204,1.659 -4.445,0.585 -8.896,0.766 -13.33,0.678 -4.434,-0.089 -8.848,-0.47 -13.23,-1.124 -2.959,-0.462 -5.883,-0.992 -8.819,-1.821 l 11.165,33.188 0.472,0.064 c -0.035,-0.165 -0.115,-0.331 -0.227,-0.464 l -0.088,-0.094 -0.025,-0.04 -0.059,-0.068 c -0.146,-0.101 -0.085,-0.069 -0.064,-0.06 l 0.21,0.082 m 44.785,39.337 c -2.572,0.048 -5.125,-0.212 -7.666,-0.807 -1.79,-0.43 -3.575,-1.032 -5.297,-1.937 -0.238,-0.126 -0.473,-0.274 -0.708,-0.414 l -3.291,30.83 z m -50.593,-31.78 c -1.905,1.135 -3.826,2.159 -5.793,3.089 -1.966,0.932 -3.957,1.802 -6.022,2.576 l -1.573,0.556 -1.129,0.345 15.146,21.107 0.125,-0.018 0.323,-0.042 0.765,-0.176 0.819,-0.246 c 1.113,-0.364 2.258,-0.856 3.373,-1.39 1.115,-0.539 2.223,-1.128 3.255,-1.778 0.709,-0.439 1.414,-0.927 1.997,-1.4 l -8.481,-24.469 c -0.936,0.688 -1.863,1.285 -2.805,1.846 m 62.453,46.197 c -1.93,-1.176 -3.659,-2.66 -5.16,-4.334 -1.5,-1.678 -2.772,-3.554 -3.777,-5.583 -0.193,-0.393 -0.368,-0.798 -0.542,-1.202 l -17.043,27.102 27.524,-15.425 c -0.336,-0.181 -0.675,-0.359 -1.002,-0.558 m -0.25,42.58 c 0.004,-0.873 0.113,-1.74 0.266,-2.596 0.345,-1.866 0.904,-3.684 1.579,-5.455 0.681,-1.77 1.467,-3.503 2.402,-5.174 0.453,-0.806 0.934,-1.603 1.467,-2.374 l -32.145,-2.435 z m 2.759,-7.663 c -0.777,1.678 -1.488,3.399 -1.992,5.183 -0.239,0.87 -0.441,1.756 -0.513,2.654 l 28.436,19.402 c -0.011,-0.276 -0.028,-0.554 -0.028,-0.827 -0.01,-1.783 0.133,-3.52 0.341,-5.241 0.426,-3.437 1.109,-6.807 1.964,-10.135 0.856,-3.326 1.877,-6.614 3.15,-9.836 0.923,-2.283 1.923,-4.548 3.22,-6.739 l -29.617,-2.245 c -0.815,0.911 -1.565,1.919 -2.261,2.959 -1.014,1.527 -1.906,3.154 -2.7,4.825 m 4.419,-15.794 c 0.271,1.297 0.601,2.615 1.042,3.83 l 27.959,1.912 c -0.123,-0.242 -0.244,-0.484 -0.368,-0.727 -0.461,-0.885 -0.775,-1.793 -1.168,-2.691 -0.348,-0.904 -0.641,-1.818 -0.962,-2.728 -1.163,-3.657 -1.957,-7.376 -2.527,-11.126 -0.563,-3.751 -0.897,-7.537 -0.919,-11.353 -0.014,-2.533 0.115,-5.082 0.444,-7.643 l -21.066,11.524 0.936,0.273 -2.637,1.869 c -0.352,0.249 -0.784,1.015 -1.024,1.88 -0.26,0.867 -0.418,1.834 -0.514,2.817 -0.191,1.974 -0.161,4.027 -0.009,6.066 0.138,2.043 0.41,4.089 0.813,6.097 m 20.266,-33.242 c -1.558,-0.657 -3.042,-1.451 -4.435,-2.342 -3.048,-1.954 -5.729,-4.343 -8.107,-6.972 -2.378,-2.636 -4.444,-5.53 -6.142,-8.691 -0.42,-0.794 -0.796,-1.621 -1.193,-2.432 -0.27,-0.67 -0.535,-1.342 -0.782,-2.028 l -13.155,20.917 c 0.255,1.357 0.703,2.728 1.294,4.036 0.779,1.727 1.803,3.362 3.022,4.828 1.887,2.265 4.253,4.116 6.921,5.336 z m 63.875,131.709 c -2.356,1.182 -4.653,2.581 -6.894,4.087 -4.485,3.016 -8.742,6.468 -12.83,10.104 -4.085,3.642 -7.992,7.506 -11.682,11.541 -1.839,2.022 -3.622,4.091 -5.288,6.219 -1.327,1.712 -2.639,3.509 -3.643,5.266 l 28.808,46.576 c 0.152,-2.627 0.455,-5.264 1.006,-7.875 1.252,-6.222 3.939,-12.332 8.12,-17.311 4.157,-4.995 9.639,-8.753 15.481,-11.181 1.447,-0.659 2.949,-1.14 4.436,-1.672 l 4.447,-1.323 4.505,-1.108 c 1.518,-0.292 3.031,-0.615 4.554,-0.88 12.207,-2.057 24.799,-1.673 36.85,0.985 2.52,0.554 5.013,1.224 7.483,1.963 l -68.721,-47.878 c -2.199,0.496 -4.449,1.397 -6.632,2.487 m -95.175,-1.5 c 4.855,-0.737 9.74,-1.093 14.612,-1.216 3.421,-0.092 6.864,-0.032 10.26,0.082 l -17.339,-28.591 c -2.225,-0.348 -4.576,-0.44 -6.874,-0.467 -3.035,-0.019 -6.077,0.145 -9.1,0.471 -3.021,0.341 -6.037,0.794 -8.99,1.543 -2.389,0.623 -4.76,1.423 -6.938,2.613 l 0.429,33.703 c 3.042,-1.867 6.279,-3.367 9.59,-4.57 4.673,-1.685 9.496,-2.849 14.35,-3.568 m -8.558,-30.631 c 3.046,-0.447 6.117,-0.733 9.201,-0.833 1.962,-0.046 3.912,-0.068 5.89,0.09 l -17.757,-29.28 c -0.757,-0.069 -1.581,-0.047 -2.358,0.024 -1.449,0.134 -2.901,0.429 -4.319,0.807 -1.415,0.387 -2.816,0.854 -4.118,1.462 -1.003,0.466 -1.979,1.028 -2.744,1.657 l 0.393,31.035 c 2.11,-1.293 4.447,-2.219 6.809,-2.966 2.942,-0.899 5.958,-1.552 9.003,-1.996 m 19.665,73.032 c 6.665,-1.828 13.433,-3.256 20.275,-4.285 5.418,-0.803 10.867,-1.363 16.428,-1.428 l -20.061,-33.079 c -4.407,-0.219 -8.708,-0.381 -13.046,-0.301 -4.719,0.073 -9.421,0.402 -14.064,1.036 -4.646,0.623 -9.213,1.671 -13.584,3.179 -3.876,1.349 -7.594,3.106 -10.936,5.382 l 0.556,43.811 c 4.739,-2.93 9.728,-5.405 14.823,-7.573 6.381,-2.702 12.946,-4.914 19.609,-6.742 M 258.492,215.73 c -1.216,0.772 -2.454,1.442 -3.727,2.07 -1.28,0.622 -2.578,1.195 -3.989,1.673 l -0.399,0.121 20.735,28.894 -11.591,-33.443 c -0.342,0.234 -0.684,0.46 -1.029,0.685 m -66.16,-92.772 c 3.955,-1.511 7.761,-3.39 11.388,-5.549 3.629,-2.156 7.086,-4.607 10.236,-7.391 2.468,-2.196 4.777,-4.61 6.635,-7.288 L 203.625,53.782 c -0.604,2.608 -1.466,5.151 -2.587,7.567 -2.9,6.267 -7.226,11.724 -12.287,16.236 -5.077,4.506 -10.917,8.129 -17.322,10.549 -3.207,1.195 -6.571,2.09 -10.117,2.387 -1.147,0.122 -2.324,0.127 -3.513,0.064 l 25.203,35.121 c 3.185,-0.65 6.304,-1.593 9.33,-2.748 m 329.236,153.293 -86.071,-6.523 c -2.664,2.286 -5.198,4.64 -7.592,7.121 -1.192,1.287 -2.397,2.564 -3.48,3.938 -1.153,1.322 -2.158,2.75 -3.187,4.163 -4.06,5.69 -7.126,12.053 -9.231,18.743 -2.09,6.704 -3.156,13.724 -3.572,20.783 -0.063,1.771 -0.18,3.539 -0.203,5.311 l 0.135,5.329 c 0.037,0.888 0.01,1.777 0.1,2.664 l 0.24,2.663 0.377,4.211 47.314,32.284 c -0.198,-10.218 0.696,-20.492 2.98,-30.509 0.169,-0.733 0.294,-1.476 0.501,-2.2 l 0.615,-2.173 c 0.426,-1.445 0.79,-2.908 1.268,-4.336 1.013,-2.839 1.949,-5.706 3.212,-8.449 1.114,-2.805 2.564,-5.458 3.923,-8.148 l 2.288,-3.905 c 0.736,-1.318 1.649,-2.525 2.466,-3.792 3.395,-4.984 7.277,-9.632 11.55,-13.874 4.277,-4.24 8.958,-8.051 13.9,-11.459 4.94,-3.412 10.173,-6.379 15.6,-8.921 2.246,-1.069 4.545,-2.023 6.867,-2.921 m -235.125,11.51 c 1.546,-0.309 3.107,-0.525 4.699,-0.572 l 1.2,0.003 0.173,0.013 -12.787,-21.084 0.302,23.785 c 0.61,-0.313 1.224,-0.587 1.84,-0.837 1.5,-0.587 3.03,-0.989 4.573,-1.308 m 50.387,104.321 c -6.676,0.915 -13.313,2.227 -19.843,3.926 -6.528,1.7 -12.96,3.776 -19.188,6.318 -5.64,2.307 -11.117,5.008 -16.239,8.242 l 0.883,69.647 c 1.236,-1.888 2.543,-3.722 3.972,-5.454 3.502,-4.24 7.51,-8.03 11.841,-11.365 8.685,-6.68 18.67,-11.408 28.976,-14.712 10.35,-3.236 21.062,-5.028 31.784,-5.871 9.275,-0.677 18.569,-0.636 27.814,-0.088 l -31.435,-51.836 c -6.103,-0.175 -12.378,0.366 -18.565,1.193 m 151.412,-89.487 c 4.041,-4.1 8.487,-7.805 13.2,-11.136 4.712,-3.335 9.726,-6.253 14.934,-8.766 2.597,-1.272 5.258,-2.411 7.952,-3.448 2.213,-0.846 4.503,-1.637 6.741,-2.274 l 15.629,1.184 0.425,-5.895 -39.366,-2.69 c -5.562,-1.285 -11.016,-3.018 -16.203,-5.381 -6.264,-2.921 -12.126,-6.701 -17.254,-11.325 -5.134,-4.615 -9.518,-10.059 -12.988,-16.05 -6.934,-12 -10.395,-25.98 -10.401,-39.934 -0.015,-6.982 0.783,-13.976 2.468,-20.759 1.644,-6.761 4.356,-13.283 8.207,-19.059 3.261,-2.603 6.701,-4.996 10.201,-7.298 0.121,-0.079 0.246,-0.152 0.367,-0.231 l 35.382,-19.354 -2.862,-5.171 -45.677,25.596 c -7.028,-1.289 -13.635,-3.941 -19.791,-7.323 -8.09,-4.502 -15.416,-10.293 -22.26,-16.587 -6.792,-6.368 -13.076,-13.316 -18.823,-20.708 -2.836,-3.72 -5.573,-7.534 -7.989,-11.545 -1.266,-1.98 -2.338,-4.052 -3.38,-6.155 l -0.705,-1.606 c -0.178,-0.394 -0.311,-0.8 -0.45,-1.206 l 14.133,-22.475 -5.021,-3.118 -12.661,20.655 c -2.35,1.299 -4.749,2.502 -7.208,3.565 -4.336,1.836 -8.825,3.28 -13.407,4.258 -9.156,1.973 -18.722,1.997 -27.757,-0.18 -9.01,-2.155 -17.56,-6.436 -24.151,-12.791 -3.272,-3.175 -6.089,-6.831 -8.012,-10.908 -0.592,-1.25 -1.094,-2.537 -1.524,-3.844 l 3.275,-30.679 -7.115,-0.729 -2.107,21.431 c -7.056,3.049 -14.349,5.511 -21.809,7.119 l -3.026,0.633 c -1.013,0.183 -2.032,0.322 -3.048,0.485 -2.028,0.367 -4.079,0.502 -6.119,0.728 -4.091,0.26 -8.193,0.399 -12.266,0.057 -8.132,-0.632 -16.161,-2.584 -23.5,-6.067 -3.668,-1.73 -7.16,-3.821 -10.422,-6.21 -1.619,-1.208 -3.191,-2.477 -4.673,-3.835 -0.736,-0.684 -1.463,-1.373 -2.155,-2.089 -0.675,-0.696 -1.388,-1.487 -1.906,-2.133 l -0.855,-1.07 -7.991,-23.748 -5.591,1.91 8.767,25.296 c 0.529,5.963 -0.517,12.01 -3.066,17.471 -2.571,5.501 -6.46,10.406 -11.074,14.488 -4.616,4.089 -10.008,7.354 -15.717,9.531 -2.853,1.078 -5.814,1.86 -8.731,2.109 -1.465,0.167 -2.886,0.095 -4.265,-0.042 -1.185,-0.19 -2.301,-0.505 -3.289,-0.964 l -17.666,-24.619 -4.79,3.462 20.194,27.746 c 2.565,5.942 3.058,12.827 1.977,19.452 -1.27,7.888 -4.43,15.513 -8.673,22.418 -4.267,6.911 -9.744,13.099 -16.08,18.176 -5.317,4.262 -11.304,7.68 -17.689,9.957 l -26.021,-14.416 -2.834,5.187 23.526,12.673 c -1.231,12.236 -2.377,24.411 -4.713,36.361 -2.344,12.039 -5.791,23.981 -11.911,34.571 -3.057,5.27 -6.713,10.209 -11.089,14.466 -4.359,4.265 -9.398,7.845 -14.872,10.62 -3.384,1.72 -6.924,3.137 -10.558,4.292 l -30.139,1.235 0.276,5.903 43.907,-2.319 c 7.61,4.07 14.441,9.239 20.593,15.082 7.441,7.125 13.938,15.188 19.589,23.808 5.655,8.617 10.515,17.779 14.417,27.351 1.908,4.8 3.609,9.696 4.846,14.723 0.95,3.675 1.626,7.418 1.869,11.233 l -25.787,18.765 3.5,4.762 24.011,-17.834 c 6.774,3.593 13.326,7.653 19.601,12.059 6.837,4.835 13.359,10.134 19.216,16.073 2.91,2.981 5.671,6.104 8.148,9.43 2.447,3.344 4.622,6.874 6.353,10.597 2.851,5.995 4.204,12.637 3.676,19.138 l -15.795,31.641 5.3,2.613 13.897,-28.57 c 2.124,-1.624 4.489,-3.126 6.889,-4.425 2.742,-1.482 5.593,-2.765 8.523,-3.812 5.861,-2.09 12.044,-3.246 18.234,-3.263 3.092,0.021 6.184,0.26 9.227,0.815 3.03,0.6 6.047,1.329 8.937,2.449 5.836,2.091 11.282,5.22 16.291,8.923 2.571,1.849 4.816,3.782 6.805,6.089 2,2.275 3.681,4.847 5.117,7.556 2.907,5.414 4.796,11.397 6.116,17.489 0.494,2.325 0.877,4.676 1.211,7.038 l 0.117,42.116 5.91,-0.046 -0.401,-31.662 c 0.329,-0.78 0.73,-1.625 1.131,-2.403 0.583,-1.112 1.198,-2.216 1.882,-3.284 1.351,-2.144 2.846,-4.213 4.482,-6.172 3.275,-3.917 7.039,-7.437 11.123,-10.544 8.188,-6.224 17.676,-10.664 27.552,-13.767 9.913,-3.05 20.247,-4.786 30.658,-5.579 10.194,-0.724 20.465,-0.556 30.698,0.217 l 21.739,35.845 5.04,-3.086 -23.275,-37.632 -0.057,-2.208 c -0.03,-1.472 -0.027,-2.922 0.021,-4.367 0.109,-2.883 0.406,-5.738 0.999,-8.512 1.132,-5.555 3.476,-10.78 7.051,-15.028 3.564,-4.254 8.279,-7.519 13.535,-9.691 1.293,-0.59 2.659,-1.028 4.002,-1.516 l 4.2,-1.258 4.256,-1.055 c 1.435,-0.278 2.865,-0.587 4.303,-0.84 11.528,-1.963 23.423,-1.631 34.875,0.87 5.727,1.248 11.347,3.01 16.779,5.231 2.714,1.112 5.38,2.344 7.975,3.698 2.053,1.073 4.133,2.251 6.038,3.476 l 11.004,7.666 3.355,-4.865 -50.54,-34.485 c -0.559,-11.042 0.168,-22.135 2.548,-32.871 0.157,-0.702 0.271,-1.416 0.465,-2.108 l 0.577,-2.079 c 0.399,-1.381 0.736,-2.782 1.185,-4.147 0.954,-2.711 1.825,-5.454 3.015,-8.072 1.044,-2.681 2.414,-5.209 3.689,-7.781 l 2.155,-3.729 c 0.693,-1.26 1.559,-2.411 2.328,-3.623 3.216,-4.756 6.851,-9.236 10.891,-13.337 m 2.389,83.56 c 15.102,9.194 28.399,18.058 38.25,23.968 -5.91,13.133 -16.417,23.968 -16.417,23.968 -23.64,-13.79 -57.255,-30.165 -89.961,-15.104 -5.335,2.457 -17.581,17.108 -12.328,23.018 4.596,6.566 24.864,40.396 27.014,45.308 0.108,0.246 -17.192,10.44 -28.777,17.945 -7.042,-14.343 -14.093,-28.498 -21.71,-42.562 -52.861,-7.88 -89.729,26.225 -89.729,26.882 0.257,12.636 2.84,23.919 3.256,36.555 -8.53,0.09 -27.268,1.402 -38.935,2.009 0.611,-18.293 10.997,-72.053 -22.982,-82.341 -45.638,-6.403 -56.543,33.338 -63.827,47.584 -0.642,-0.19 -24.001,-20.88 -23.344,-21.536 1.998,-1.785 37.788,-40.276 -4.269,-78.471 -13.811,-12.543 -42.975,3.905 -56.108,15.068 -2.693,-5.836 -7.883,-27.341 -9.196,-30.625 4.743,-1.185 29.33,-16.651 30.666,-19.799 0.092,-7.546 -6.709,-23.484 -15.924,-41.554 C 90.242,306.642 72.767,274.562 8.523,283.409 7.52,276.797 0,260.187 0,256.637 c 30.042,-2.409 55.164,2.754 76.505,-30.078 9.449,-14.538 16.64,-52.367 15.592,-53.926 -1.597,-2.372 -26.321,-13.844 -26.321,-13.844 -1.314,-7.223 4.925,-28.564 10.178,-32.504 l 33.653,20.028 c 20.357,-2.627 32.395,-30.152 32.395,-47.225 0.493,-2.627 -20.668,-28.354 -24.022,-33.872 -1.314,-2.16 10.618,-14.573 17.565,-23.311 6.063,5.939 15.337,19.535 25.121,30.131 1.313,1.313 25.035,-5.995 29.858,-23.079 0.784,-1.956 -9.425,-22.828 -14.474,-39.383 8.349,-3.006 19.831,-7.397 28.533,-8.868 2.027,11.44 9.922,33.465 12.241,37.732 12.693,13.736 44.318,15.761 67.373,7.116 2.435,-2.956 1.693,-26.904 1.345,-32.468 7.655,1.488 27.009,5.872 28.597,6.646 0,0 -6.117,27.139 -1.683,36.267 10.507,21.013 37.979,22.678 56.365,14.798 12.477,-5.253 16.076,-16.539 23.299,-27.702 3.611,1.931 20.444,11.516 21.213,16.294 -0.618,2.401 -13.156,14.309 -8.56,28.098 7.223,22.326 31.981,43.265 54.964,46.549 16.252,-7.059 36.967,-18.586 44.154,-23.877 2.856,3.981 14.674,20.271 17.739,25.91 -11.479,6.703 -46.039,20.967 -51.864,33.573 -7.825,36.252 2.642,59.573 15.775,71.393 20.356,18.386 49.601,17.859 75.211,20.486 0.63,10.387 -2.653,16.514 -2.435,23.299 -17.484,1.324 -29.272,1.524 -53.733,18.761 -20.355,15.924 -44.817,64.188 -13.953,82.574 m -209.773,-128.991 0.223,-3.086 33.642,2.299 c -0.398,-1.047 -0.706,-2.106 -1.007,-3.171 -0.558,-2.088 -0.975,-4.203 -1.257,-6.347 -0.272,-2.144 -0.412,-4.314 -0.312,-6.541 0.057,-1.113 0.174,-2.241 0.459,-3.408 l 0.034,-0.12 -33.403,18.272 -0.029,0.267 0.307,0.151 -0.559,1.149 0.652,-0.004 0.002,0.287 0.282,-0.408 z m -118.45,69.993 c -0.62,-3.839 -1.614,-7.566 -2.962,-11.151 -1.398,-3.568 -3.095,-6.997 -5.058,-10.281 -1.98,-3.276 -4.249,-6.385 -6.681,-9.37 -4.866,-5.979 -10.517,-11.366 -16.489,-16.434 -3,-2.52 -6.071,-4.992 -9.255,-7.335 -2.555,-1.937 -5.185,-3.79 -7.852,-5.627 l -45.133,2.385 c 7.415,2.795 14.331,7.096 20.483,12.158 8.327,6.796 15.392,15.047 21.263,23.997 5.858,8.963 10.631,18.649 13.871,28.854 1.641,5.091 2.851,10.331 3.526,15.642 0.326,2.654 0.474,5.338 0.443,8.007 -0.029,1.015 -0.101,2.027 -0.199,3.036 l 34.719,-25.264 c -0.045,-2.921 -0.194,-5.791 -0.676,-8.617 M 143.97,176.662 c 1.285,-0.594 2.528,-1.274 3.811,-1.878 1.264,-0.64 2.465,-1.396 3.704,-2.087 1.234,-0.702 2.37,-1.557 3.563,-2.328 4.629,-3.282 8.915,-7.093 12.579,-11.471 1.821,-2.193 3.537,-4.487 5.06,-6.916 1.527,-2.425 2.837,-4.983 4.021,-7.614 1.789,-4.112 3.079,-8.47 3.799,-12.972 l -21.906,-30.098 c 0.184,3.32 -0.028,6.636 -0.561,9.869 -1.434,8.722 -4.892,16.903 -9.528,24.229 -4.642,7.336 -10.535,13.853 -17.365,19.207 -4.728,3.688 -9.95,6.807 -15.523,9.111 l 25.511,14.134 z m -20.96,69.188 c 3.906,-6.554 7.121,-13.508 9.681,-20.682 2.653,-7.138 4.626,-14.524 5.98,-21.952 0.646,-3.715 1.115,-7.464 1.188,-11.156 0.086,-3.332 -0.075,-6.765 -0.978,-9.58 l -29.546,-15.917 c -1.376,11.615 -2.743,23.331 -5.219,34.894 -2.653,12.223 -6.522,24.414 -13.128,35.238 -3.28,5.403 -7.312,10.367 -11.978,14.625 -4.665,4.262 -9.991,7.767 -15.686,10.41 -2.264,1.053 -4.583,1.969 -6.939,2.77 l 53.172,-2.178 c 5.482,-4.67 9.808,-10.406 13.453,-16.472 m 153.742,-62.022 c -3.015,0.633 -6.028,1.07 -9.057,1.369 -3.03,0.295 -6.063,0.476 -9.152,0.453 -1.547,-0.015 -3.103,-0.075 -4.726,-0.265 l -0.07,-0.01 7.936,23.584 c 1.14,0.45 2.597,0.762 4.069,0.932 1.623,0.186 3.306,0.253 4.988,0.235 2.579,-0.04 5.181,-0.283 7.702,-0.761 l 2.618,-26.637 c -1.441,0.437 -2.875,0.793 -4.308,1.1 M 200.765,375.56 c -3.551,-5.03 -7.461,-9.821 -11.711,-14.293 -4.258,-4.461 -8.834,-8.643 -13.86,-12.225 -2.52,-1.775 -5.17,-3.385 -7.996,-4.623 -1.405,-0.641 -2.878,-1.112 -4.374,-1.489 -0.188,-0.041 -0.379,-0.071 -0.568,-0.106 l -32.093,23.836 c 6.736,3.44 13.225,7.305 19.495,11.531 6.986,4.747 13.681,9.976 19.759,15.911 3.021,2.981 5.906,6.12 8.52,9.498 2.585,3.396 4.916,7.015 6.806,10.888 2.295,4.552 3.736,9.605 4.156,14.752 l 19.924,-39.912 c -2.191,-4.814 -5.001,-9.393 -8.058,-13.768 m 64.418,-160.656 c -0.523,-0.062 -1.047,-0.135 -1.577,-0.22 l 11.077,32.923 3.271,-33.282 c -2.351,0.421 -4.715,0.676 -7.098,0.767 -1.875,0.065 -3.759,0.027 -5.673,-0.188 m -2.498,187.252 c -5.284,-2.798 -10.786,-5.181 -16.465,-7.003 -5.681,-1.811 -11.533,-3.102 -17.472,-3.644 -5.181,-0.439 -10.394,-0.316 -15.558,0.329 l -21.043,43.26 c 0.956,-0.6 1.92,-1.182 2.911,-1.736 2.855,-1.588 5.828,-2.966 8.896,-4.103 6.136,-2.269 12.666,-3.574 19.251,-3.666 3.289,-0.019 6.587,0.2 9.835,0.754 3.232,0.597 6.456,1.343 9.538,2.494 6.224,2.152 12.003,5.392 17.295,9.21 2.638,1.842 5.292,4.057 7.497,6.573 2.244,2.499 4.111,5.29 5.697,8.198 1.512,2.745 2.761,5.6 3.819,8.515 l -0.142,-50.592 c -4.59,-3.11 -9.204,-6.027 -14.059,-8.589 m -64.139,-82.312 c 0.942,0.629 1.896,1.244 2.826,1.89 l 2.736,1.998 c 3.601,2.725 7.008,5.687 10.231,8.848 3.221,3.164 6.279,6.51 9.028,10.15 1.791,2.438 3.484,5.004 4.818,7.811 l 18.187,-36.435 c -0.369,-0.564 -0.805,-1.116 -1.232,-1.644 -0.907,-1.04 -1.889,-2.034 -2.953,-2.949 -2.106,-1.851 -4.404,-3.501 -6.795,-4.983 -2.39,-1.488 -4.911,-2.755 -7.493,-3.814 -2.045,-0.828 -4.136,-1.526 -6.257,-2.002 l -26.118,19.4 0.043,0.021 c 1.048,0.508 1.982,1.142 2.979,1.709 m 36.33,-85.399 -0.199,-0.36 -22.549,-12.148 c 0.042,0.538 0.069,1.07 0.096,1.603 0.074,2.133 -0.013,4.224 -0.186,6.296 -0.35,4.144 -1.077,8.214 -2.093,12.228 -1.067,4.002 -2.419,7.955 -4.414,11.723 -0.891,1.641 -1.918,3.247 -3.193,4.734 l 30.524,-1.248 c 0.075,-0.113 0.151,-0.224 0.235,-0.332 l 0.287,-0.532 c 0.785,-1.503 1.368,-3.436 1.834,-5.32 0.459,-1.907 0.78,-3.864 0.972,-5.821 0.166,-1.956 0.196,-3.913 0.017,-5.788 -0.175,-1.86 -0.584,-3.685 -1.331,-5.035 m 72.721,-40.687 c -3.261,-0.386 -6.389,-1.225 -9.415,-2.326 -3.022,-1.116 -5.944,-2.514 -8.696,-4.329 -0.686,-0.457 -1.375,-0.91 -2.022,-1.459 l -0.753,-0.603 -2.728,25.555 c 1.553,1.586 3.984,2.709 6.517,3.365 2.979,0.76 6.21,1.04 9.276,0.792 l 12.741,-20.784 c -1.67,0.071 -3.315,-0.028 -4.92,-0.211 M 218.501,295.45 c -0.609,-2.858 -1.787,-5.701 -3.136,-8.417 -1.639,-3.25 -3.568,-6.383 -5.708,-9.357 -2.15,-2.965 -4.474,-5.81 -6.997,-8.417 -2.516,-2.576 -5.292,-5.015 -8.235,-6.519 l -0.039,-0.021 -31.461,1.662 c 0.617,0.262 1.224,0.546 1.816,0.857 2.634,1.393 5.052,3.168 7.299,5.12 4.5,3.917 8.309,8.577 11.58,13.558 3.266,4.989 6.012,10.351 7.887,16.065 0.933,2.855 1.646,5.801 1.98,8.824 0.17,1.559 0.237,3.144 0.157,4.732 z m -40.75,-75.815 c -1.411,6.236 -3.427,12.321 -6.029,18.148 -1.295,2.915 -2.759,5.758 -4.429,8.479 -1.662,2.724 -3.526,5.332 -5.657,7.711 -2.129,2.375 -4.526,4.537 -7.241,6.216 -0.177,0.111 -0.359,0.213 -0.539,0.319 l 41.663,-1.706 c 1.175,-0.47 2.298,-1.303 3.285,-2.398 1.172,-1.304 2.16,-2.892 3.02,-4.562 1.702,-3.369 2.904,-7.087 3.825,-10.856 0.907,-3.779 1.549,-7.648 1.827,-11.509 0.137,-1.93 0.19,-3.859 0.1,-5.737 -0.072,-1.67 -0.304,-3.373 -0.737,-4.651 l -27.363,-14.741 c 0.017,0.312 0.033,0.625 0.041,0.934 0.045,1.643 -0.043,3.261 -0.196,4.864 -0.31,3.209 -0.867,6.37 -1.57,9.489 m 58.694,41.011 0.009,-0.007 0.018,-0.024 z m -3.712,2.478 -0.212,-0.304 c -0.115,-0.161 -0.308,-0.468 -0.418,-0.718 -0.197,-0.428 -0.304,-0.889 -0.357,-1.357 l -30.927,1.634 c 1.63,1.349 3.108,2.816 4.532,4.317 2.63,2.823 4.99,5.846 7.138,9.009 2.144,3.165 4.065,6.483 5.698,9.964 1.16,2.528 2.209,5.143 2.86,7.928 l 19.781,-14.393 -0.029,-0.176 c -0.112,-0.418 -0.198,-0.83 -0.361,-1.284 -0.274,-0.886 -0.657,-1.809 -1.041,-2.72 -0.796,-1.829 -1.72,-3.649 -2.698,-5.436 -0.981,-1.785 -2.024,-3.546 -3.127,-5.229 -0.275,-0.422 -0.553,-0.834 -0.839,-1.235 m 76.372,-102.833 c -4.308,-1.282 -8.546,-2.952 -12.507,-5.317 -2.177,-1.314 -4.301,-2.879 -6.169,-4.758 l -2.987,27.975 c 1.086,1.675 2.922,3.299 4.908,4.618 2.325,1.546 4.921,2.811 7.602,3.812 2.684,0.99 5.478,1.748 8.267,2.086 2.68,0.33 5.397,0.303 7.735,-0.346 l 15.306,-24.968 c -3.013,0.037 -6.007,-0.121 -8.978,-0.451 -4.454,-0.51 -8.86,-1.379 -13.177,-2.651 m -51.838,-49.136 c -6.09,-0.396 -12.155,-1.241 -18.09,-2.697 -4.391,-1.104 -8.764,-2.508 -12.843,-4.573 l 13.054,38.802 c 3.4,1.157 7.179,1.884 10.904,2.398 4.214,0.572 8.479,0.884 12.73,0.911 4.252,0.027 8.5,-0.206 12.661,-0.811 3.175,-0.469 6.317,-1.152 9.283,-2.178 l 3.419,-34.777 c -4.201,1.258 -8.502,2.033 -12.802,2.536 -6.094,0.707 -12.227,0.783 -18.316,0.389 m -113.573,92.976 c -1.434,7.821 -3.915,15.353 -6.889,22.648 -3.073,7.256 -6.81,14.252 -11.455,20.626 -4.217,5.755 -9.215,11.129 -15.245,14.895 l 43.141,-1.767 c 0.33,-0.199 0.654,-0.405 0.972,-0.618 2.625,-1.751 4.908,-3.962 6.922,-6.372 3.998,-4.861 7.091,-10.419 9.494,-16.231 2.418,-5.811 4.252,-11.867 5.48,-18.026 0.612,-3.078 1.074,-6.186 1.295,-9.293 0.108,-1.552 0.153,-3.106 0.07,-4.63 -0.031,-0.741 -0.098,-1.493 -0.218,-2.208 l -32.45,-17.481 c 0.017,0.125 0.039,0.251 0.054,0.375 0.246,2.085 0.284,4.129 0.236,6.16 -0.131,4.059 -0.681,8.016 -1.407,11.922 m 263.394,98.026 c 2.232,-7.166 5.525,-14.054 9.887,-20.201 1.101,-1.526 2.187,-3.066 3.417,-4.49 1.165,-1.48 2.446,-2.849 3.717,-4.228 1.336,-1.397 2.714,-2.749 4.12,-4.06 l -44.62,-3.381 c -1.527,1.83 -2.961,3.742 -4.277,5.737 -1.359,2.103 -2.59,4.292 -3.703,6.541 -2.194,4.515 -3.9,9.288 -5.024,14.192 -1.12,4.897 -1.729,9.936 -1.568,14.884 0.09,2.463 0.36,4.919 0.956,7.189 0.298,1.134 0.692,2.203 1.165,3.151 0.467,0.95 1.082,1.707 1.643,2.105 l 4.298,3.054 -0.186,0.053 26.767,18.264 -0.01,-0.109 -0.255,-2.76 c -0.094,-0.919 -0.071,-1.85 -0.112,-2.775 l -0.154,-5.557 c 0.019,-1.855 0.133,-3.713 0.197,-5.57 0.418,-7.416 1.523,-14.857 3.742,-22.039 m -87.58,-111.587 -0.042,0.463 c -0.094,1.022 0.17,2.469 0.597,3.863 0.234,0.704 0.522,1.414 0.791,2.123 0.336,0.699 0.644,1.408 1,2.102 1.446,2.777 3.277,5.418 5.372,7.792 2.095,2.376 4.453,4.513 7.039,6.217 2.308,1.518 4.82,2.679 7.408,3.22 l 25.029,-14.027 c -2.81,-1.723 -5.453,-3.634 -7.985,-5.662 -3.796,-3.071 -7.362,-6.392 -10.666,-9.976 -3.294,-3.589 -6.366,-7.41 -9.013,-11.587 -1.68,-2.696 -3.228,-5.538 -4.384,-8.613 z m 94.604,-8.524 c -1.847,2.996 -2.993,6.571 -3.667,10.261 -0.669,3.702 -0.907,7.541 -0.85,11.384 0.129,7.703 1.337,15.441 3.245,22.969 1.931,7.524 4.635,14.873 8.218,21.686 1.8,3.396 3.839,6.654 6.194,9.591 2.023,2.524 4.298,4.815 6.816,6.597 l 59.591,4.072 c -1.164,-0.478 -2.321,-0.975 -3.464,-1.51 -6.499,-3.121 -12.587,-7.144 -17.892,-12.039 -5.312,-4.886 -9.821,-10.623 -13.356,-16.89 -3.553,-6.262 -6.109,-13.05 -7.755,-20.021 -1.654,-6.971 -2.399,-14.137 -2.275,-21.277 0.118,-7.139 1.066,-14.262 2.915,-21.153 1.815,-6.893 4.719,-13.538 8.812,-19.414 l 0.051,-0.072 0.067,-0.052 c 0.689,-0.531 1.388,-1.045 2.091,-1.557 l -48.032,26.273 z m -6.864,2.992 -32.493,17.774 -0.038,0.185 c -1.017,4.97 -1.448,10.137 -1.524,15.301 -0.075,5.17 0.253,10.36 0.93,15.485 0.681,5.124 1.732,10.195 3.256,15.067 1.381,4.357 3.184,8.597 5.655,12.196 l 42.537,2.907 c -0.835,-0.896 -1.632,-1.818 -2.386,-2.762 -2.609,-3.275 -4.791,-6.797 -6.705,-10.425 -3.798,-7.276 -6.592,-14.965 -8.596,-22.841 -1.974,-7.882 -3.224,-15.964 -3.341,-24.17 -0.042,-4.101 0.196,-8.239 0.978,-12.359 0.412,-2.13 0.963,-4.267 1.727,-6.358 m -31.009,-22.023 c -4.814,-4.808 -9.162,-10.033 -13.107,-15.545 -1.964,-2.764 -3.813,-5.611 -5.52,-8.567 -0.86,-1.473 -1.664,-2.989 -2.422,-4.557 -0.046,-0.098 -0.086,-0.206 -0.133,-0.305 l -16.935,26.93 c 0.881,3.93 2.831,7.817 5.147,11.438 2.461,3.83 5.358,7.444 8.495,10.837 3.142,3.393 6.554,6.55 10.148,9.441 3.165,2.528 6.502,4.875 9.975,6.73 l 32.214,-18.052 c -4.198,-1.358 -8.182,-3.269 -11.872,-5.543 -5.899,-3.593 -11.175,-8.007 -15.99,-12.807 m -31.722,56.337 c -0.793,3.333 -1.093,6.9 -1.112,10.464 -0.01,3.578 0.223,7.179 0.686,10.746 0.469,3.567 1.155,7.115 2.165,10.526 0.28,0.837 0.532,1.692 0.831,2.517 0.336,0.801 0.608,1.653 0.99,2.414 0.443,0.987 0.96,1.908 1.523,2.743 l 27.063,1.847 c -1.808,-3.273 -3.163,-6.713 -4.28,-10.174 -1.668,-5.24 -2.73,-10.596 -3.439,-15.976 -0.695,-5.384 -1.022,-10.803 -0.93,-16.232 0.072,-4.083 0.349,-8.172 0.96,-12.252 z m 26.477,56.462 c 1.196,-2.436 2.523,-4.811 3.996,-7.1 0.755,-1.154 1.547,-2.283 2.371,-3.39 l -26.98,-2.044 c -1.671,2.283 -3.03,5.013 -4.202,7.784 -1.255,3.033 -2.355,6.163 -3.26,9.347 -0.913,3.181 -1.661,6.419 -2.155,9.665 -0.243,1.621 -0.419,3.249 -0.454,4.839 -0.023,0.795 0.007,1.577 0.095,2.31 0.023,0.219 0.06,0.433 0.103,0.638 l 24.34,16.608 c -0.533,-2.392 -0.784,-4.774 -0.879,-7.139 -0.192,-5.502 0.461,-10.924 1.652,-16.209 1.196,-5.285 3.014,-10.421 5.373,-15.309 m -94.72,16.061 c -0.535,-0.331 -1.193,-0.608 -1.88,-0.832 -1.383,-0.449 -2.894,-0.709 -4.401,-0.837 -1.51,-0.132 -3.038,-0.121 -4.508,0.042 -1.172,0.129 -2.334,0.399 -3.27,0.798 l -11.027,22.67 c 1.68,-0.424 3.399,-0.666 5.129,-0.671 2.991,-0.026 5.916,0.709 8.638,1.781 2.73,1.09 5.248,2.612 7.581,4.342 1.385,1.035 2.699,2.155 3.96,3.331 l -0.086,-30.527 -0.136,-0.097 m -113.42,50.903 c 1.52,0.328 3.025,0.755 4.463,1.353 2.895,1.154 5.623,2.69 8.227,4.395 5.209,3.427 9.912,7.559 14.325,11.946 4.4,4.407 8.47,9.144 12.194,14.151 2.909,3.948 5.616,8.07 7.875,12.469 l 16.388,-32.827 c -1.177,-3.426 -3.156,-6.709 -5.343,-9.788 -2.564,-3.528 -5.474,-6.838 -8.554,-9.98 -3.095,-3.13 -6.343,-6.134 -9.789,-8.878 l -2.614,-2.014 c -0.884,-0.648 -1.791,-1.265 -2.686,-1.898 -0.927,-0.557 -1.829,-1.205 -2.778,-1.691 -0.31,-0.163 -0.622,-0.332 -0.931,-0.497 l -31.221,23.19 c 0.148,0.024 0.297,0.041 0.444,0.069 m 66.092,46.217 c 6.16,0.391 12.233,1.659 18.129,3.41 5.897,1.774 11.606,4.128 17.085,6.905 4.323,2.179 8.513,4.664 12.571,7.25 l -0.123,-43.485 c -3.112,-1.797 -6.828,-3.034 -10.53,-4.028 -4.045,-1.067 -8.201,-1.839 -12.382,-2.401 -4.183,-0.54 -8.402,-0.872 -12.601,-0.919 -3.633,-0.021 -7.317,0.134 -10.75,0.842 l -16.037,32.972 c 4.845,-0.64 9.75,-0.839 14.638,-0.546 m -77.173,-95.964 c 2.577,3.197 4.956,6.583 6.929,10.223 1.953,3.647 3.546,7.5 4.661,11.488 1.091,4.001 1.562,8.142 1.605,12.232 -0.03,2.738 -0.36,5.443 -0.903,8.086 l 27.452,-19.975 c 0.3,-1.997 0.334,-4.057 0.164,-6.107 -0.244,-2.871 -0.854,-5.729 -1.688,-8.522 -1.676,-5.595 -4.235,-10.938 -7.324,-15.934 -3.092,-4.996 -6.752,-9.671 -11.042,-13.706 -2.151,-2.006 -4.478,-3.84 -7.034,-5.307 -0.707,-0.404 -1.44,-0.773 -2.19,-1.101 l -46.814,2.473 c 6.389,2.493 12.426,5.88 18.131,9.753 6.648,4.616 12.866,10.013 18.053,16.397 m 112.871,22.621 c -2.676,-0.935 -5.498,-1.524 -8.308,-1.386 -2.064,0.087 -4.078,0.522 -6.005,1.214 l -18.225,37.467 c 3.01,-0.477 6.004,-0.619 8.989,-0.665 4.373,-0.033 8.726,0.226 13.052,0.734 4.325,0.522 8.627,1.258 12.888,2.321 3.219,0.835 6.431,1.772 9.562,3.247 l -0.101,-35.842 c -3.558,-3.012 -7.513,-5.55 -11.852,-7.09 M 178.847,145.166 c -0.909,2.87 -2.08,5.661 -3.472,8.345 -1.394,2.682 -2.969,5.285 -4.789,7.712 -3.607,4.876 -7.911,9.265 -12.787,12.92 -1.245,0.874 -2.438,1.833 -3.733,2.636 -1.3,0.793 -2.567,1.651 -3.901,2.389 -1.139,0.605 -2.284,1.203 -3.439,1.777 l 32.664,18.097 c 2.972,-1.088 5.648,-3.158 7.986,-5.468 2.828,-2.847 5.273,-6.113 7.478,-9.526 2.187,-3.43 4.146,-7.021 5.838,-10.724 0.846,-1.85 1.631,-3.728 2.319,-5.623 0.336,-0.948 0.662,-1.901 0.926,-2.848 0.087,-0.308 0.169,-0.619 0.246,-0.928 l -23.08,-31.713 c -0.131,4.365 -0.913,8.745 -2.256,12.954 m 40.256,60.243 c 1.572,-2.089 3.01,-4.276 4.102,-6.552 0.994,-2.043 1.741,-4.187 1.898,-6.189 l -18.59,-25.543 c -0.193,0.556 -0.393,1.107 -0.599,1.655 -0.763,1.983 -1.612,3.913 -2.522,5.811 -1.821,3.796 -3.907,7.454 -6.234,10.966 -2.346,3.496 -4.958,6.85 -8.055,9.798 -1.555,1.463 -3.234,2.825 -5.095,3.959 -0.677,0.411 -1.388,0.776 -2.116,1.114 l 26.867,14.884 0.09,-0.043 c 0.181,-0.082 0.427,-0.231 0.658,-0.371 0.478,-0.296 0.98,-0.67 1.472,-1.048 0.993,-0.775 1.963,-1.649 2.902,-2.555 1.88,-1.82 3.627,-3.809 5.222,-5.886 m 29.656,74.008 c 1.706,0.657 3.331,1.436 4.901,2.303 1.569,0.869 3.075,1.837 4.53,2.926 0.696,0.52 1.375,1.084 2.041,1.698 l 12.925,-25.892 -25.163,18.691 c 0.255,0.09 0.513,0.178 0.766,0.274 m 15.454,7.523 c 0.326,-0.036 0.652,-0.067 0.975,-0.092 1.747,-0.105 3.461,-0.028 5.159,0.204 1.695,0.233 3.373,0.6 5.033,1.229 0.342,0.132 0.682,0.279 1.021,0.439 l -0.075,-26.683 z m -27.435,-26.46 c 0.287,0.429 0.567,0.858 0.834,1.289 1.155,1.846 2.205,3.715 3.201,5.622 0.991,1.909 1.925,3.847 2.758,5.876 0.401,1.013 0.796,2.023 1.119,3.126 l 24.202,-17.61 z m 10.442,51.928 11.268,-22.572 c -0.203,-0.217 -0.449,-0.446 -0.688,-0.667 -0.574,-0.495 -1.196,-0.98 -1.855,-1.435 -1.315,-0.912 -2.721,-1.749 -4.171,-2.484 -1.449,-0.734 -2.94,-1.382 -4.443,-1.899 -1.258,-0.432 -2.54,-0.767 -3.76,-0.925 l -19.134,14.213 c 1.531,0.49 3.025,1.068 4.476,1.725 2.684,1.225 5.258,2.65 7.682,4.293 2.427,1.638 4.741,3.439 6.873,5.463 1.073,1.001 2.075,2.091 3.01,3.254 0.248,0.341 0.498,0.685 0.742,1.034 m 21.295,-60.096 -27.369,-14.744 c 0.067,0.478 0.125,0.953 0.169,1.423 0.202,2.297 0.143,4.543 -0.06,6.759 -0.233,2.209 -0.608,4.391 -1.145,6.55 -0.404,1.593 -0.87,3.153 -1.556,4.74 l 32.434,-1.329 z m -40.797,-51.239 c -1.324,2.665 -2.957,5.068 -4.716,7.344 -1.778,2.261 -3.694,4.388 -5.786,6.365 -1.051,0.989 -2.135,1.945 -3.32,2.848 -0.135,0.1 -0.275,0.201 -0.413,0.302 l 22.941,12.709 0.134,-0.109 c 0.181,-0.116 0.41,-0.36 0.627,-0.559 0.438,-0.438 0.884,-0.957 1.312,-1.5 0.856,-1.099 1.649,-2.308 2.363,-3.549 0.713,-1.24 1.362,-2.526 1.849,-3.798 0.472,-1.176 0.782,-2.491 0.767,-3.214 l -14.461,-19.871 c -0.382,1.051 -0.827,2.061 -1.297,3.032 m 17.683,26.473 c -0.841,1.436 -1.759,2.82 -2.817,4.158 -0.427,0.532 -0.888,1.058 -1.388,1.58 l 22.569,12.503 -16.327,-22.432 c -0.585,1.479 -1.255,2.87 -2.037,4.191 M 214.722,110.904 c -3.287,2.759 -6.853,5.153 -10.578,7.241 -3.731,2.076 -7.639,3.828 -11.666,5.217 -3.069,1.055 -6.215,1.892 -9.411,2.436 l 24.963,34.785 c 0.716,-0.115 1.472,-0.297 2.199,-0.493 1.383,-0.428 2.767,-0.939 4.125,-1.55 2.725,-1.204 5.372,-2.656 7.924,-4.247 2.545,-1.607 4.996,-3.361 7.303,-5.268 1.895,-1.571 3.691,-3.254 5.303,-5.057 l -13.733,-39.621 c -1.897,2.436 -4.106,4.586 -6.429,6.557 m 18.17,77.371 -1.407,0.502 -1.384,0.432 c -0.424,0.093 -0.913,0.244 -1.28,0.294 l -0.033,0.006 -18.662,-26.005 c 0.334,-0.078 0.665,-0.16 0.999,-0.241 1.573,-0.452 3.095,-0.987 4.562,-1.613 2.941,-1.235 5.744,-2.708 8.455,-4.33 2.703,-1.633 5.295,-3.451 7.772,-5.438 1.51,-1.219 2.969,-2.516 4.362,-3.899 l 11.22,32.37 -0.208,0.183 c -0.28,0.274 -0.652,0.553 -1.029,0.832 -0.746,0.555 -1.576,1.099 -2.432,1.61 -1.71,1.029 -3.507,2 -5.348,2.877 -1.837,0.881 -3.708,1.707 -5.587,2.42"
       id="path30668"
       inkscape:connector-curvature="0"
       style="fill:#0b0b09" />
  </g>
</svg>
